<svg width="196" height="442" viewBox="0 0 196 442" fill="none" xmlns="http://www.w3.org/2000/svg">
<path fill-rule="evenodd" clip-rule="evenodd" d="M161.953 162.46C155.823 173.751 148.245 183.734 139.27 193.704C139.899 170.147 140.441 146.462 141.368 122.688C147.052 131.874 153.108 140.188 161.192 149.308C167.53 154.919 164.575 157.249 161.953 162.46ZM182.049 438.074C182.759 437.242 182.339 436.182 181.356 435.642C183.448 431.905 177.145 429.02 174.042 426.207C166.989 419.868 155.879 410.782 154.89 402.778C151.527 384.619 149.605 366.396 144.219 348.45C141.019 337.051 132.135 327.905 128.166 316.707C121.262 287.116 130.18 257.44 128.639 227.554C148.093 225.973 145.573 227.983 143.49 214.576C144.792 213.827 146.06 213.034 147.246 212.235C150.352 213.608 154.018 216.974 157.439 216.796C158.521 216.586 159.302 215.462 160.044 214.496C165.537 207.321 170.642 200.306 175.64 193.075C203.282 156.965 197.03 148.788 171.247 114.173C160.388 100.804 147.051 81.3503 126.366 80.0007C123.868 80.002 121.235 79.8922 119.084 78.5906C119.069 76.5184 117.791 75.8498 114.549 75.471C112.723 75.3157 111.291 74.4339 109.509 74.7939C108.237 71.2765 108.492 68.4486 107.112 64.9683C102.387 59.0292 87.0551 61.9923 81.4406 63.8553C74.4638 65.8651 81.1 74.8608 76.5472 78.9688C75.5545 79.4282 74.521 79.6478 73.1978 79.6478C67.5575 78.6069 64.8086 84.2191 62.1419 87.9203C54.509 88.7001 48.7889 89.6391 45.2774 91.9185C42.0572 93.9329 39.6896 97.1728 36.5422 103.873C29.9514 115.822 25.6295 127.69 23.7207 139.138C22.0593 146.895 17.4439 153.609 13.7391 160.655C4.64287 179.001 0.716431 191.152 2.89378 207.3C5.20346 206.957 7.53113 206.262 9.96216 206.002L10.9447 207.928C11.0074 207.89 11.0324 207.847 11.0371 207.835C13.8894 223.997 6.0647 256.908 31.5924 252.577C33.8442 270.364 41.0284 286.176 49.6721 301.049C53.1679 306.644 56.6833 312.558 56.6253 319.128L55.3092 319.153C55.0853 319.157 55.0133 319.195 55.0133 319.195C54.7627 319.246 55.0532 320.864 55.3343 321.78C59.4635 333.868 63.0345 345.954 66.2414 358.188C66.9179 359.836 67.2107 364.274 68.7766 365.027C68.7084 365.632 70.8686 366.82 71.0353 366.781C70.6595 369.116 72.0226 370.16 71.9772 372.53C71.9843 372.474 70.0614 372.557 70.1451 372.508C68.9966 372.509 67.6961 374.529 67.6797 375.897C67.5755 377.546 69.2573 379.096 69.8453 380.713C70.7566 384.263 70.6141 387.862 71.0197 391.434C67.1919 392.153 68.0515 395.524 71.408 395.691C71.408 395.691 72.0187 400.4 71.8981 402.749C69.5955 402.977 68.573 404.677 67.812 405.996C64.9801 406.023 62.329 407.09 59.6991 408.203C53.5687 410.692 47.5479 413.299 42.0877 415.94C37.2695 418.594 26.768 421.512 32.2203 427.094C32.1381 427.238 33.3908 429.828 35.0804 429.592C43.4179 430.263 75.1231 424.558 82.4576 423.293C84.9466 422.803 95.8404 421.628 91.3166 418.581C93.0023 414.679 93.0766 407.278 87.9914 406.374C87.4974 402.708 83.7738 401.422 80.0595 402.778C80.083 400.141 79.8841 397.859 79.8512 395.221C81.6387 395.026 83.6187 394.476 84.1355 393.353C84.6248 392.732 84.4353 390.621 82.5939 390.606C82.5406 390.603 81.2104 390.655 81.1564 390.655C81.3701 386.387 80.9207 382.765 81.6919 378.49C82.1053 377.07 83.4582 376.839 84.3437 376.108C85.1752 373.985 82.6189 372.27 80.4314 371.913C79.8747 369.753 81.0507 367.467 80.4314 365.348C81.8579 365.309 82.9712 365.248 83.8975 364.531C84.2999 364.205 84.9583 364.304 85.4696 364.274C85.966 359.817 89.3217 356.011 90.0662 351.723C91.1154 346.647 89.1385 341.352 88.4307 336.179C87.8568 331.877 88.7713 327.475 89.2277 323.25C108.023 348.101 133.402 372.05 137.945 402.302C138.429 404.63 138.723 407.235 136.131 409.516L136.02 409.542C135.361 410.638 134.947 412.728 134.474 413.859C132.026 415.46 134.273 418.537 136.041 419.923C136.578 420.43 137.035 421.017 137.524 421.548C146.76 430.687 147.805 441.014 165.535 440.316C169.893 440.091 180.092 440.205 182.049 438.074Z" fill="white"/>
<path fill-rule="evenodd" clip-rule="evenodd" d="M107.842 66.5878C106.346 65.7405 108.475 73.0442 108.48 73.7414L108.518 73.8948C108.89 75.3815 109.547 77.1099 111.059 78.0612C110.362 82.7898 109.494 87.5047 108.426 92.1825C98.9001 93.2118 89.3106 94.6985 79.6225 93.9487C74.5663 93.9851 71.2067 91.1442 69.1398 87.6047L69.0771 87.4975L69.5031 86.2317C75.9827 82.9366 80.894 76.258 77.9729 69.9564C77.7826 69.5463 76.9927 69.7114 77.1657 70.1396C78.3918 72.9844 77.8766 76.1911 76.1353 78.8039C75.0478 79.2841 73.8891 79.2503 72.7233 79.2211C67.1002 78.5395 63.8698 83.8294 61.4498 87.1278L59.3311 87.3877C51.2253 88.3858 43.4069 89.5671 39.4045 96.4497L39.0389 97.0943C33.3759 107.084 28.084 117.361 25 128.125C23.4639 133.791 22.9088 139.629 20.6555 145.156C15.9774 155.417 9.38429 165.059 5.8094 175.682C3.59212 179.436 -2.6393 208.491 3.50755 208.587C5.72171 208.038 7.97736 207.594 10.2573 207.277C9.90573 207.499 9.77733 207.876 9.84387 208.263C10.6401 212.888 10.6996 217.573 10.6957 222.235C10.37 233.432 10.4146 257.092 30.5354 254.083C32.185 267.774 37.8175 281.018 44.0779 293.691C47.7976 301.86 55.0124 309.312 55.3749 318.285C52.8828 318.317 53.8498 320.944 54.1559 322.211C54.9944 325.313 56.0843 328.367 57.1882 331.409C61.0779 342.321 63.4 353.6 66.7307 364.637C66.9107 365.169 67.2137 365.531 67.6005 365.774C67.6663 366.922 69.7599 367.581 70.9445 367.2C70.7777 368.589 70.8239 369.996 70.8004 371.39L70.7957 371.651L70.4332 371.648C68.854 371.311 67.2584 373.429 66.8129 374.517C65.3143 377.56 68.789 379.792 69.0474 382.69C69.2831 385.441 69.5962 388.169 69.7387 390.93C65.4059 392.331 67.3226 397.027 71.5692 396.977C71.3704 398.691 71.3437 400.414 71.2561 402.13C69.4099 402.531 68.0257 403.821 67.1174 405.167C63.386 405.379 59.9794 407.207 56.6543 408.501C51.5135 410.605 46.4557 412.851 41.495 415.235C36.6642 417.9 25.9145 420.925 30.6137 427.089C29.4315 427.933 30.2574 429.589 31.3348 430.28L31.3724 430.303C32.4434 430.998 33.8605 430.998 35.1767 430.885C50.469 431.202 66.5835 427.265 81.7897 424.696L82.9383 424.526C86.2673 424.032 89.6747 423.479 92.6319 422.133C93.883 421.289 94.1891 419.228 92.909 418.396C94.222 414.461 93.0382 407.551 87.8442 406.028C87.228 403.109 84.3789 401.016 80.7562 401.907C80.7382 400.038 80.555 398.191 80.5143 396.321C82.3104 396.041 83.9671 395.463 84.8338 394.049C85.7858 392.641 84.7539 390.279 82.5899 390.355C82.5163 387.444 82.7152 384.581 82.7441 381.675L82.7473 381.5C82.7582 380.559 82.7128 379.521 83.1935 378.655C83.6884 377.764 85.0053 377.676 85.5893 376.83C86.8694 374.554 84.3069 371.88 81.6637 371.268C81.3317 369.743 81.5039 368.129 81.1712 366.59C82.5781 366.522 83.7776 366.251 84.797 365.589C85.5008 365.499 86.7465 365.759 86.8271 364.92C87.1137 361.495 89.1979 358.446 90.5101 355.252C93.2214 349.038 90.7614 342.55 89.8188 336.266C89.3748 333.061 89.843 329.843 90.2392 326.63C108.126 349.849 131.072 372.3 136.372 400.311C136.667 403.464 138.22 406.059 135.491 408.779C134.575 408.998 133.793 412.563 133.44 413.461C130.645 415.604 133.081 419.431 135.513 421.089C136.678 422.755 138.235 424.215 139.693 425.708L140.163 426.36C143.25 430.639 146.545 434.931 150.732 438.517C157.77 442.843 169.578 441.612 177.867 440.833L178.604 440.733C180.33 440.495 182.241 440.146 183.235 438.872C184.098 437.767 183.982 436.335 182.909 435.507C183.974 432.964 181.548 430.468 179.267 428.906C170.424 422.41 162.801 414.767 156.865 406.298C154.59 392.602 152.253 378.908 149.723 365.244C147.681 353.936 144.57 342.617 138.003 332.471L136.393 329.934C133.67 325.637 131.061 321.35 129.509 316.613C125.893 305.453 126.759 293.765 127.26 282.34C127.904 264.504 129.438 246.664 129.238 228.815C133.289 228.462 144.271 228.679 146.001 225.23C146.567 221.942 145.239 218.597 144.939 215.313C145.794 214.815 146.629 214.295 147.442 213.758C148.948 214.689 150.502 215.569 152.099 216.386C155.92 218.665 158.874 219.03 161.238 215.284C168.079 206.321 174.679 197.229 180.907 187.963C186.683 179.076 193.843 170.202 195.309 159.97C197.44 141.552 171.37 112.074 158.317 97.1086C150.296 89.0655 139.92 80.4993 126.665 79.869L126.263 79.8527C124.486 79.7786 121.903 79.9404 120.421 78.9437C120.141 75.6187 116.025 75.6355 112.965 75.0858C112.331 74.6855 111.369 74.5907 110.559 74.6225C109.46 72.0077 109.211 69.1175 107.842 66.5878ZM145.633 408.67C148.989 407.222 152.996 407.104 156.527 408.252C160.906 414.979 166.515 421.119 172.884 426.634C175.211 429.325 183.946 432.874 179.589 436.506L178.999 436.596C172.311 437.605 165.52 438.4 158.704 437.945C154.252 436.923 150.657 434.188 147.825 431.233C144.309 427.455 141.404 423.297 138.188 419.339C135.3 415.283 133.778 415.228 136.042 410.41C136.046 410.503 136.073 410.599 136.131 410.696C136.931 412.033 139.385 411.91 140.771 411.406C142.576 410.748 143.889 409.432 145.633 408.67ZM177.352 437.754L177.25 437.793L177.147 437.831L176.997 437.832L177.352 437.754ZM50.0556 413.536C55.0359 411.69 64.1611 406.309 69.2486 407.126C73.0051 408.079 76.4689 409.783 80.4736 410.03L80.6459 410.035C83.5044 410.136 88.5848 410.927 89.659 408.14C91.0809 410.392 91.5491 413.181 91.5271 415.73C91.5866 417.901 90.3872 419.619 87.6023 419.795L85.024 420.333C68.6865 423.733 52.197 426.978 35.3606 427.984C30.9417 425.696 30.8329 422.688 35.5188 420.599C40.2509 418.092 45.1208 415.756 50.0556 413.536ZM146.277 361.07C149.204 376.247 151.168 391.509 154.002 406.692C144.112 404.643 141.208 411.994 137.526 409.943C140.101 407.134 139.792 405.017 139.03 401.747C137.519 390.734 132.57 380.257 126.436 370.479C125.737 369.362 125.019 368.252 124.292 367.145C132.18 367.741 140.671 365.876 146.277 361.07ZM85.3529 404.347C86.0301 405.218 86.2987 406.268 86.5148 407.276C86.6259 407.796 86.5649 408.563 86.788 409.147C82.5445 409.253 78.2767 408.434 74.4528 406.925L74.6391 406.915C77.756 406.755 84.1965 407.119 85.3529 404.347ZM87.9914 406.592C88.404 406.835 88.761 407.117 89.0695 407.43C89.1736 407.915 88.8706 408.443 88.3797 408.745C88.2819 408.034 88.1621 407.298 87.9914 406.592ZM79.7016 396.431C79.6883 398.628 79.527 400.792 79.5568 402.987C79.5607 403.747 79.2882 404.709 79.8504 405.356L78.957 405.434C76.7194 405.627 74.4356 405.787 72.1987 405.575C72.1267 402.719 72.1243 399.848 71.8973 396.994C74.6564 396.979 76.9864 396.595 79.7016 396.431ZM71.1551 405.178C71.1582 405.266 71.1605 405.358 71.1566 405.445C70.8348 405.395 70.5146 405.336 70.1991 405.266C70.459 405.244 70.7237 405.28 70.9797 405.208C71.0392 405.2 71.0987 405.194 71.1551 405.178ZM80.7891 404.837C81.0718 405.102 81.623 405.15 81.9714 404.974C82.0426 404.984 82.1131 404.992 82.1875 404.995C82.2078 404.996 82.2305 404.995 82.2501 404.995L82.0082 405.045C81.5032 405.148 81.1125 405.215 80.5934 405.277C80.685 405.14 80.7461 404.992 80.7891 404.837ZM69.1797 404.826C69.2447 404.926 69.3339 405.009 69.4436 405.078L69.1938 405.009C69.1523 404.997 69.1108 404.985 69.0701 404.972C69.103 404.921 69.1406 404.873 69.1797 404.826ZM83.8074 404.222C83.7604 404.313 83.6555 404.452 83.5357 404.525C83.6422 404.434 83.7353 404.333 83.8074 404.222ZM71.2247 402.808C71.2232 402.861 71.2208 402.913 71.2177 402.967C71.1832 402.937 71.1425 402.91 71.0948 402.891C71.1394 402.864 71.184 402.836 71.2247 402.808ZM82.6024 390.837C84.6827 391.396 83.9538 393.561 82.3793 394.27C80.667 395.206 78.0802 395.06 76.115 395.2C74.1028 395.235 71.7736 395.914 69.9626 394.94C69.0176 394.412 69.009 393.213 70.0088 392.751C70.0276 392.788 70.048 392.824 70.0683 392.859C70.055 392.943 70.0644 393.04 70.1091 393.151C71.2506 394.853 78.4113 393.87 80.2278 393.027L80.3679 392.977C81.5979 392.543 82.7512 392.342 82.6024 390.837ZM80.0586 365.803C79.6085 367.477 79.7557 369.219 79.4714 370.898C79.2929 371.385 79.5216 371.707 79.888 371.874C77.5243 372.459 75.1426 372.75 72.681 372.294C72.948 370.332 72.2747 368.145 71.9333 366.173L80.0586 365.803ZM71.0353 366.214C70.9961 366.465 71.0008 366.738 70.9664 366.998C70.9617 366.992 70.957 366.987 70.9507 366.982L70.9405 366.974C70.643 366.759 70.3737 366.486 70.0887 366.249C70.4011 366.243 70.7205 366.228 71.0353 366.214ZM83.3572 315.43C84.8635 318.406 86.5625 321.3 88.4682 324.118L88.3907 324.783C87.8873 329.147 87.5075 333.515 88.3617 337.871L88.4424 338.244C89.7593 344.347 91.4003 350.701 88.2067 356.608L88.0611 356.917C86.9195 359.343 85.7185 361.748 85.41 364.352C80.2184 364.66 75.0102 365.09 69.8115 365.241C68.4672 365.43 67.8135 364.794 67.6937 363.747C63.6381 349.658 60.0804 335.472 55.685 321.452L55.6396 321.38C55.1635 320.625 54.8057 319.756 55.6912 319.491C57.3612 319.25 58.9991 320.731 60.5846 321.109C69.0975 323.891 75.5442 316.5 83.3572 315.43ZM83.5584 321.168C78.3894 327.51 81.2017 337.143 81.7952 344.675C82.2344 347.448 81.7185 350.289 82.0692 353.048C82.1178 353.264 82.528 353.304 82.6423 353.11C83.8606 350.568 83.3603 347.646 83.2538 344.972C82.4928 337.064 80.3397 328.9 83.5584 321.168ZM68.4461 234.319C68.4657 234.215 68.641 234.253 68.652 234.342C68.7076 253.363 70.149 272.329 72.4281 291.255C72.4602 291.665 71.6507 291.762 71.5551 291.353C69.9157 284.324 69.2533 277.161 68.6982 270.023L68.6356 269.215C67.9137 259.627 67.6843 250.013 67.9951 240.409C68.0624 238.391 68.0718 236.316 68.4461 234.319ZM21.5692 206.614C21.7704 206.812 21.9896 206.93 22.2128 206.991C22.2112 211.435 23.2932 215.809 26.2582 219.659C27.561 221.086 28.2602 222.735 28.8842 224.43C28.7049 224.891 28.9304 225.42 29.3492 225.685C32.0903 232.592 32.3722 239.989 31.3614 247.163C28.279 243.415 27.056 238.94 26.194 234.529C26.147 234.307 25.7047 234.31 25.6561 234.529C24.6336 239.246 26.367 243.956 28.6055 248.266C29.8464 249.137 29.5802 251.11 29.7251 252.344C7.00415 255.086 14.9056 218.912 11.9954 207.771C11.9414 207.463 11.6274 207.241 11.2704 207.146C14.6785 206.717 18.1305 206.684 21.5692 206.614ZM113.498 75.8805L113.892 75.963C118.037 76.8214 119.137 76.8409 119.401 80.8826C120.432 86.5852 124.241 91.5646 125.954 97.08C126.639 99.0281 125.916 102.618 122.667 102.093C121.615 101.825 120.794 103 121.59 103.625C123.942 105.469 126.225 107.371 128.523 109.262C119.301 135.073 107.321 160.215 92.7305 184.268C92.1519 185.221 93.8869 186.062 94.4616 185.106C108.969 160.976 121.033 135.842 130.396 110.024L130.68 109.242C131.093 108.292 125.806 104.885 124.843 103.773C134.484 99.9229 121.056 86.439 120.664 79.9586C123.457 80.8644 126.552 80.5538 129.467 80.9489C135.068 81.7605 139.982 84.448 144.352 87.3416C162.098 100.339 173.441 118.333 184.786 135.292C192.513 146.361 196.237 159.886 188.484 171.658C179.488 186.75 169.049 201.297 158.018 215.419C156.804 216.725 154.942 215.224 153.665 214.674C146.327 211.017 139.963 206.042 135.07 200.223C147.901 186.883 159.839 172.305 166.491 156.072C167.023 152.123 160.348 147.549 157.912 144.117C152.533 137.963 147.508 131.6 142.709 125.129C142.861 124.49 142.541 123.788 141.724 123.806L141.249 123.15C137.584 118.098 137.176 117.903 140.815 124.082C138.969 146.878 139.276 170.114 138.478 193.055C136.318 195.423 134.096 197.753 131.823 200.046C124.445 195.832 115.768 193.081 106.856 192.231L106.399 192.192C102.627 191.873 96.2475 191.205 95.7464 195.325C96.4189 200.367 108.835 197.504 112.85 200.365C106.301 202.552 98.7967 203.171 92.7845 206.47C90.8562 207.401 87.0761 210.377 90.7692 211.514C92.3805 211.63 94.0451 211.106 95.6556 210.995C93.8431 211.5 92.1762 212.359 91.1145 213.704C90.3504 214.626 89.7929 216.539 91.6187 216.935C95.7816 217.028 99.9273 215.91 104.027 215.345L103.662 215.469C100.673 216.485 96.0283 218.305 100.053 220.994C104.083 222.723 108.962 219.781 112.976 218.995C123.793 216.912 131.783 222.626 142.869 216.437C143.181 219.163 144.175 221.968 143.87 224.697C141.203 226.764 132.904 226.696 129.192 226.969L129.196 226.863C129.25 225.187 128.711 225.359 128.609 226.988C119.211 227.227 109.791 227.082 100.412 226.523C96.3868 226.277 92.368 225.944 88.3656 225.513L87.6156 225.431C85.5588 225.204 83.4096 225.052 81.3904 224.646C79.3242 224.416 79.3211 222.588 79.5403 221.245C82.3761 171.609 106.69 124.937 113.498 75.8805ZM75.2827 79.9801C74.8043 80.5688 74.2751 81.1308 73.702 81.6624C72.8204 80.5311 70.6751 79.8904 70.0644 81.5792C69.377 83.3142 68.3944 85.0965 68.3654 86.9355C54.3125 124.95 53.9554 165.373 54.2287 204.805C53.8083 211.06 56.1461 217.181 55.93 223.403C48.2322 224.321 40.4223 224.399 32.6932 223.72C32.4646 223.223 32.2062 222.731 31.9126 222.251C20.3431 210.548 26.4766 195.879 32.0496 183.201C35.4186 183.317 38.8071 183.143 42.1801 183.174C41.1387 185.85 40.8686 188.681 40.3143 191.448C39.9369 193.419 39.4554 195.376 38.9019 197.318L38.7531 197.836C38.5441 198.552 38.2669 199.326 38.5707 200.036C38.8682 200.736 39.8947 201.02 40.575 200.475C41.8019 199.314 41.6703 197.584 42.0665 196.144L42.1393 195.691C42.815 191.561 43.7036 187.269 42.4697 183.174C43.6817 182.956 46.9928 183.751 47.1666 182.4C47.1157 180.168 49.0676 175.331 46.8949 173.86C45.6031 173.043 43.3811 173.301 41.8653 173.251C40.1139 173.192 38.364 173.138 36.6141 173.147C50.6757 144.953 46.7649 136.271 45.3384 108.21L45.2961 107.354C45.3001 107.171 44.9407 107.124 44.9016 107.31C42.7516 118.805 45.6179 130.443 44.2603 141.972C41.8481 163.881 25.119 182.69 22.3216 204.492C16.2883 203.914 10.1868 204.623 4.33902 205.881C4.21609 204.996 4.12138 204.108 4.05484 203.217C2.9454 186.945 9.82587 171.138 17.8565 156.543C22.6684 148.793 25.6428 140.527 26.8877 131.879C29.3054 120.619 34.7296 110.01 40.1366 99.5506C43.5533 91.727 50.9427 89.8829 60.1062 88.9745C57.016 93.2248 53.9437 97.4849 50.8777 101.748C50.1934 103.036 52.2901 103.959 53.2054 104.751C41.9499 109.847 48.5226 125.572 48.2893 134.388C49.1247 142.484 49.4402 150.633 50.9129 158.673C51.021 159.23 52.0513 159.068 52.0607 158.544C51.9245 146.494 50.1934 134.491 49.4332 122.462L49.3408 121.584C48.7481 115.889 48.1695 107.672 56.4225 106.108C57.5366 105.958 57.6219 104.585 56.7278 104.172C55.5378 103.622 54.4941 102.949 53.5609 102.151C58.2702 95.8753 62.3767 89.2676 67.332 83.1303L67.5387 82.9113C70.8458 79.4368 70.6164 80.6929 75.2827 79.9801ZM98.0279 195.019C98.9431 192.795 107.773 194.245 110.134 194.485C118.833 195.849 127.587 199.044 134.212 203.963C134.621 204.266 135.104 204.262 135.485 204.096C138.455 207.241 141.879 210.092 145.638 212.598C144.95 213.046 144.243 213.483 143.517 213.899C143.168 213.93 142.854 214.079 142.713 214.349C132.373 220.564 124.764 215.715 114.024 216.836C110.013 217.506 106.32 219.623 102.188 219.712C99.1545 219.139 101.825 218.087 103.241 217.68C107.305 216.071 111.468 214.643 115.618 213.197C116.906 212.748 116.464 211.133 115.025 211.415C112.505 211.908 109.978 212.377 107.45 212.837C102.587 213.662 97.6074 214.717 92.6929 215.116C93.7843 212.598 105.378 209.874 108.746 208.876C110.019 208.374 113.649 208.473 113.234 206.833C112.899 205.312 109.034 207.054 107.749 207.18C102.491 208.284 97.1267 208.958 91.7691 209.63C97.5237 204.842 106.441 204.427 113.79 202.185L114.033 202.139C115.321 201.885 117.042 201.416 116.059 200.224L116.027 200.185C112.247 195.564 97.3984 197.907 98.0279 195.019ZM108.901 169.303C106.222 167.473 104.784 171.228 104.955 172.969C104.828 174.413 104.692 175.86 104.579 177.305C104.745 178.437 103.292 182.558 105.236 182.595C113.726 182.241 122.203 182.326 130.696 181.905C130.707 183.326 130.791 184.746 130.703 186.17C130.749 187.948 130.005 189.729 130.439 191.485C130.705 192.295 132.031 192.403 132.548 191.713C134.1 188.685 133.032 184.779 131.935 181.715C138.35 180.362 135.258 176.076 135.257 172.331C135.267 172.233 135.148 172.182 135.051 172.2C133.461 174.044 135.531 176.502 134.623 178.507C133.684 180.698 129.699 180.497 127.447 180.532L127.379 180.534C120.366 180.634 113.358 180.874 106.345 180.987C106.645 179.027 106.726 177.021 106.907 175.062C107.134 173.656 106.805 171.987 107.669 170.726C111.569 171.776 115.628 172.197 119.728 172.129C124.614 172.239 129.753 172.605 134.529 172.12C127.679 171.244 120.114 171.37 113.134 170.258C111.747 169.96 110.332 169.357 108.901 169.303ZM142.611 127.013C146.836 133.7 151.692 140.066 156.867 146.264C157.975 147.588 159.113 148.894 160.269 150.191L160.483 150.418C162.794 152.853 165.193 154.873 163.01 158.104C157.288 169.631 149.631 180.458 140.757 190.505L140.909 184.733C141.412 165.492 141.888 146.249 142.611 127.013ZM36.4575 173.486C47.0632 175.333 47.266 171.876 45.4942 181.653C41.2397 181.677 36.9876 181.597 32.7315 181.655C33.9474 178.924 35.208 176.206 36.4575 173.486ZM68.3012 89.8693C70.6939 93.2807 74.6681 95.4711 79.4542 95.503C87.8512 95.9026 96.3602 95.4439 104.543 93.7934C105.746 93.5426 107.184 93.3268 108.291 92.7816C101.982 121.154 91.7683 148.795 84.584 177.005L84.3484 177.936L84.1526 177.903C79.2624 177.183 73.9415 177.483 68.9135 177.227C64.879 177.178 60.8038 177.537 56.7975 177.039L56.922 173.533C57.9328 145.467 59.3428 117.065 68.3012 89.8693ZM71.8104 81.7592C72.2543 81.754 72.9339 81.973 73.3864 81.947C72.4641 82.7651 71.4432 83.5026 70.369 84.1446C70.8607 83.3811 71.2443 82.4649 71.8104 81.7592Z" fill="#121957"/>
<path fill-rule="evenodd" clip-rule="evenodd" d="M55.4438 29.9621C59.1079 11.6079 87.0839 8.29879 105.315 12.1619C105.651 8.63149 108.336 5.51189 111.687 3.45991C125.922 -5.02425 142.774 9.38011 139.4 21.7944C138.795 25.555 135.166 29.8465 130.087 29.2028C136.47 39.2085 138.965 59.3839 124.901 65.6206C123.544 66.4199 123.319 68.0444 122.275 69.086C120.58 70.7657 113.337 72.9055 109.419 71.1907C108.187 72.1277 106.767 73.0393 105.106 73.3636C96.5277 79.0512 83.9905 80.3346 73.5438 77.9875C67.108 77.083 60.4358 74.6788 57.1248 69.7657C54.3187 66.0261 55.6121 61.6452 56.8985 57.688C57.4544 55.5105 57.8161 53.3162 58.0385 51.1036C57.5828 50.6624 57.5569 50.0496 57.4434 49.4915C56.9494 47.5142 55.8697 45.6785 55.3295 43.7064C54.1214 39.2306 54.3312 34.4477 55.4438 29.9621Z" fill="white"/>
<path fill-rule="evenodd" clip-rule="evenodd" d="M55.7374 39.3103C55.9488 41.5235 57.0817 43.5145 58.0298 45.5769C57.9257 44.3566 57.975 43.0869 57.8717 41.8198C58.9741 33.8847 72.0022 31.8 77.06 25.8001C76.8681 25.4612 76.7992 22.4318 77.5532 23.2837C80.479 33.8864 97.8666 39.2057 109.77 39.2265C110.671 38.6118 112.457 39.2609 112.119 40.4858C110.339 46.9499 109.95 53.711 111.093 60.2791C111.631 62.5982 111.722 65.3891 113.402 67.3872C115.185 68.7921 113.041 68.9051 111.862 68.588C111.533 68.9708 111.186 69.3431 110.838 69.7135C112.532 70.683 115.004 70.154 116.758 69.5088C118.709 68.653 119.825 66.996 121.238 65.6672C122.01 64.3806 123.181 63.6405 124.686 62.9439C133.059 58.231 132.842 47.8915 131.64 40.4188C128.138 18.1824 98.3402 7.45319 74.4261 15.1782C61.5116 17.9135 55.4602 28.9731 55.7374 39.3103ZM133.628 26.7211C138.735 22.5085 137.707 15.1438 134.497 10.2873C128.064 0.140221 109.792 0.469925 107.604 12.7693C116.922 15.4132 124.784 21.0824 129.465 28.2407C130.99 28.1058 132.463 27.5436 133.628 26.7211ZM55.4438 29.9661C59.1079 11.6119 87.0839 8.3028 105.315 12.1661C105.651 8.63543 108.335 5.5159 111.687 3.46372C125.922 -5.02025 142.774 9.38412 139.4 21.7984C138.795 25.559 135.166 29.8505 130.087 29.2068C136.47 39.2122 138.965 59.3876 124.901 65.6243C123.544 66.4242 123.319 68.0487 122.275 69.0897C120.58 70.77 113.337 72.9098 109.419 71.195C108.487 72.1411 103.2 75.0203 103.585 72.1983C103.974 71.438 105.176 71.2392 105.976 70.8636C107.658 70.0949 109.12 69.0104 110.268 67.7375C106.661 59.3155 106.936 49.937 108.956 41.2649C96.8832 40.7619 82.6775 36.379 77.352 26.7543C73.752 33.7585 62.5889 34.66 59.7687 42.491C59.5988 46.6042 60.6636 50.6563 59.8917 54.7715C59.6646 58.8022 57.0919 62.8062 58.5795 66.8102C62.7345 75.5421 77.6918 76.8235 87.574 76.4583C89.9213 76.2978 91.87 75.2471 93.7992 74.2497C94.9556 73.7948 96.3328 74.7461 95.6242 75.7611C92.9184 78.8886 87.3533 79.1615 83.08 79.0491C71.9904 78.5045 55.9629 75.7903 55.3874 64.4482C55.7531 59.9523 57.8834 55.6494 58.0385 51.1073C57.5828 50.6661 57.5569 50.0533 57.4434 49.4958C56.9494 47.5178 55.8697 45.6828 55.3295 43.7107C54.1214 39.2343 54.3312 34.4519 55.4438 29.9661Z" fill="#121957"/>
<path fill-rule="evenodd" clip-rule="evenodd" d="M88.2671 57.3528C85.0798 57.0324 81.9903 57.8408 78.8742 58.2482C77.2285 58.4633 75.582 58.6238 73.9167 58.6836C73.5816 58.6953 73.2465 58.7024 72.9114 58.7083C72.8808 58.4639 72.7156 58.2398 72.3578 58.1053C71.6242 57.8297 71.0378 57.7056 70.2321 57.7323C69.4954 57.7563 68.7563 57.8193 68.0305 57.9292C66.7128 58.1293 65.3889 58.5835 64.4251 59.3723C62.1945 61.1976 62.5335 64.1301 64.2575 66.1179C67.8183 70.2265 74.3183 70.4175 79.885 70.3636L80.3986 70.3584C85.4674 70.298 92.7189 70.9244 95.0216 66.1477C95.8687 64.3914 95.7505 62.3556 94.7139 60.6706C93.4776 58.6615 90.8743 57.6153 88.2671 57.3528ZM72.4345 64.1938L72.48 64.1951C74.817 64.2698 77.1533 64.3225 79.4912 64.3563C79.4215 64.854 79.3502 65.3511 79.268 65.8475C79.2046 66.2381 79.1357 66.6279 79.0645 67.0178C79.0339 67.1829 78.9228 67.4389 78.9549 67.602L78.9658 67.667C78.846 67.7118 78.7372 67.7846 78.6558 67.8892C78.6276 67.9256 78.6072 67.9626 78.5869 67.999C76.7712 68.0107 74.8178 67.9815 72.9669 67.7085L72.9638 67.6748C72.9301 67.4792 72.8315 67.3473 72.7007 67.2569C72.5708 66.6325 72.5825 65.9671 72.5324 65.3478C72.5011 64.9632 72.4674 64.5785 72.4345 64.1938ZM81.2771 64.3829C82.962 64.4063 84.6468 64.4251 86.3309 64.4076L87.0951 64.3978C86.9338 65.1152 86.7584 65.8306 86.612 66.5526C86.4601 67.305 87.2595 67.7839 87.9516 67.7644C87.8741 67.7748 87.7966 67.7859 87.7191 67.795C85.5558 68.0484 83.3104 67.9808 81.115 67.9789C81.2332 67.4083 81.1855 66.7637 81.2035 66.2874L81.2066 66.214C81.2403 65.6032 81.2638 64.9931 81.2771 64.3829ZM92.7181 64.251C92.6602 64.624 92.5459 64.9892 92.376 65.329C91.6573 66.765 90.0084 67.4356 88.2648 67.7176C88.567 67.6312 88.8074 67.4233 88.8684 67.0672C89.0196 66.1815 89.0736 65.2809 89.0783 64.3816C90.2934 64.3725 91.5171 64.3511 92.7181 64.251ZM66.0959 63.9443C66.961 64.1139 67.9671 64.0359 68.8158 64.0684C69.6113 64.0983 70.4067 64.1243 71.2022 64.1509C71.1654 64.6006 71.1286 65.0502 71.0887 65.4999C71.0378 66.0808 71.0331 66.6949 70.8984 67.2732C69.2973 66.8203 67.863 66.0951 66.7872 64.9346C66.5187 64.6454 66.2791 64.3062 66.0959 63.9443ZM88.6328 59.7089C90.0734 59.9916 91.4365 60.5881 92.1693 61.6804C92.6038 62.3283 92.7957 63.0957 92.7589 63.8527C91.5414 63.7351 90.3028 63.6909 89.0704 63.6538C89.0665 63.4699 89.061 63.2861 89.054 63.1028L89.0352 62.6337C89.0015 61.7376 88.9851 60.6128 88.6328 59.7089ZM81.1768 59.8181L81.811 59.759C83.5719 59.5933 85.3327 59.4185 87.0943 59.5185C87.3488 59.5328 87.6079 59.5562 87.8671 59.5874C87.5554 60.5179 87.5821 61.6109 87.4521 62.5323C87.4012 62.8884 87.3378 63.2419 87.2681 63.5934L86.962 63.5817C85.072 63.4966 83.1804 63.4446 81.2888 63.3822C81.2888 63.0885 81.2865 62.7942 81.281 62.4998L81.2739 62.2048C81.2528 61.453 81.3115 60.6056 81.1768 59.8181ZM72.3312 59.6985C74.1758 59.9455 76.0823 59.9981 77.8948 60C78.6182 60.0007 79.3416 59.9637 80.0651 59.9104C80.0181 60.2294 79.993 60.5524 79.9578 60.8662C79.8866 61.5017 79.8051 62.1366 79.7159 62.7701L79.6368 63.325C77.3123 63.2373 74.9869 63.1431 72.6632 63.0456L72.3351 63.0307L72.2427 61.965C72.1801 61.2541 72.1112 60.5433 72.0141 59.8363L72.0869 59.8142C72.173 59.785 72.2545 59.7447 72.3312 59.6985ZM71.5303 59.9637C71.4285 60.9682 71.3721 61.9774 71.2977 62.9839L69.7647 62.9163C69.5095 62.9046 69.2542 62.8929 68.999 62.8806C68.0062 62.8331 66.7301 62.5843 65.7483 62.8169C65.6731 62.0774 65.9283 61.3575 66.734 60.861C68.148 59.9884 69.9487 60.299 71.5303 59.9637ZM76.7658 50.9796C74.4835 49.8971 68.7586 48.7911 68.3954 52.1921C68.2286 53.7575 69.634 55.0545 71.2742 55.6328L71.3361 55.6542C72.8746 56.1786 75.6015 56.7699 76.9333 55.6341C78.0412 54.688 76.5716 52.9927 75.1944 53.7672C74.4866 54.1656 72.9975 53.8725 72.2075 53.6828L72.1582 53.6711C71.3063 53.4631 70.1703 52.7997 70.5226 51.9303C70.8342 51.1616 72.1613 51.0212 72.992 50.9965C74.2322 50.9595 75.4395 51.1979 76.6687 51.2759C76.8636 51.2876 76.9231 51.0543 76.7658 50.9796ZM67.3133 45.5103C64.2168 45.3901 62.29 48.1913 63.0025 50.4858C63.1254 50.8821 63.6601 51.2707 64.1761 51.2259L64.3061 51.2161C64.3726 51.2109 64.4392 51.2038 64.5002 51.1901C64.9904 51.0777 65.4296 50.6554 65.3936 50.2174L65.3842 50.09C65.3121 49.0062 65.4539 47.7573 67.0096 47.4948C68.3288 47.2719 69.0648 48.3233 69.0804 49.2915C69.0836 49.4636 69.3169 49.5832 69.5001 49.4909C70.4537 49.0101 70.6189 48.0542 70.2548 47.231C69.7929 46.1874 68.6381 45.5616 67.3133 45.5103ZM90.2957 46.1114C88.0424 45.4882 85.6106 46.483 84.5192 48.1335C84.1364 48.2258 83.7543 48.4701 83.8075 48.8444C83.8842 49.3824 84.0001 49.7223 84.4503 50.1303C85.1557 50.7691 86.4758 50.4422 86.7686 49.656L86.7811 49.6209C87.1139 48.6046 88.4652 47.934 89.6952 48.2895C91.1327 48.7053 91.0912 49.9627 92.0988 50.695C92.2179 50.7808 92.3596 50.7944 92.5013 50.7379C93.5723 50.309 93.3797 49.0192 92.9984 48.281C92.4974 47.3122 91.5242 46.4506 90.2957 46.1114ZM93.3656 40.4426C91.539 38.8993 86.7772 37.4054 85.5276 40.2554C85.2896 40.7986 85.7962 41.5303 86.4789 41.6434C87.5962 41.8273 88.5874 41.4257 89.6976 41.4978C90.5964 41.5563 91.5336 41.8052 92.2523 42.2659C94.2417 43.5434 94.6794 45.7033 96.066 47.3284C96.1341 47.4077 96.2649 47.3746 96.2774 47.281C96.5929 44.9144 95.366 42.1327 93.3656 40.4426ZM69.5479 38.9233C68.3359 38.5686 66.9634 38.5991 65.7451 38.9136C64.5175 39.23 63.3916 39.8324 62.5233 40.6187C62.1295 40.9754 61.7646 41.3692 61.4726 41.7889C61.3176 42.0112 61.154 42.4699 60.9778 42.7435C60.0234 43.2003 59.6147 44.2406 60.4697 44.9807L60.508 45.0132L60.6223 45.1068C61.0819 45.4837 61.7748 45.6468 62.402 45.4967C63.8058 45.1601 63.9757 44.2445 64.4619 43.2724C64.7829 42.6311 65.3325 42.0625 65.9996 41.6453C67.5748 40.6602 70.1578 40.3457 72.0548 40.8103C72.1558 40.835 72.274 40.7285 72.202 40.6511C71.8426 40.2658 71.636 39.9494 71.1544 39.6381C70.6659 39.3223 70.1327 39.0942 69.5479 38.9233Z" fill="#121957"/>
<path fill-rule="evenodd" clip-rule="evenodd" d="M52.2705 39.1425C52.4232 39.1217 52.5766 39.1015 52.7301 39.0827C52.8491 39.0268 52.99 38.9833 53.1529 38.9573C53.5256 38.8793 53.8959 38.826 54.2654 38.7974C59.5706 37.8091 71.844 39.2126 72.3506 42.9626C74.0401 43.4298 75.5019 43.0113 77.46 43.0529C78.9507 37.8929 104.719 38.6213 105.958 41.7325C105.963 41.7312 105.968 41.7306 105.972 41.7293C107.163 41.4239 108.919 41.4973 110.282 41.4492C113.192 41.3985 116.105 41.6136 118.953 42.1218C124.284 42.8235 131.561 43.6449 127.853 49.1597C127.852 49.161 127.852 49.1616 127.851 49.1629L127.85 49.1623C127.211 49.7048 126.126 49.2682 126.086 48.5333C127.332 45.9211 124.517 45.6072 122.351 44.8567C116.959 43.2524 111.471 43.0302 105.895 43.526C105.476 43.9353 104.839 44.2921 104.166 44.4786C100.439 44.9912 102.403 47.2818 100.047 47.6145C100.48 55.5985 88.7766 59.9566 81.9956 54.7083C79.2882 52.5159 78.6423 49.2682 78.0151 46.3402C77.6832 46.2785 77.4718 46.1284 77.3488 45.9295C76.5502 45.2694 76.0492 44.6598 74.4707 44.4786C72.8916 44.2973 71.6764 44.6611 71.5128 44.7723C71.4713 44.8418 71.4267 44.9107 71.375 44.9802C71.303 45.0835 71.2043 45.166 71.0932 45.231C72.652 53.1812 65.2 58.2093 57.6767 54.0858C54.4079 51.5386 53.7174 47.6398 53.5811 44.1595C53.138 43.9379 52.8569 43.5091 53.0104 42.9691C53.2218 42.2251 52.7262 41.5811 51.937 41.2575C50.9106 40.8378 51.0922 39.3043 52.2705 39.1425ZM84.5957 42.9145C85.5298 42.7443 85.9283 43.9366 84.9919 44.1075C84.3287 44.2277 83.7658 44.5052 83.3861 44.9743L83.3461 45.0257C82.8365 45.6976 81.5477 45.077 82.0614 44.4012C82.6384 43.6403 83.5356 43.1075 84.5957 42.9145ZM57.2469 42.175C57.5757 41.9827 58.0736 42.1257 58.2647 42.3966C58.4753 42.6955 58.3375 43.0282 58.029 43.2238L57.9977 43.2433C57.7151 43.4083 57.4395 43.704 57.405 44.0075L57.4019 44.0451C57.3651 44.8385 55.8759 44.8424 55.9135 44.0451C55.9495 43.2647 56.4953 42.613 57.2469 42.175Z" fill="#121957"/>
</svg>
