<svg width="240" height="435" viewBox="0 0 240 435" fill="none" xmlns="http://www.w3.org/2000/svg">
<path fill-rule="evenodd" clip-rule="evenodd" d="M199.969 198.182C199.939 199.874 199.734 203.759 199.222 205.397C204.931 197.815 213.486 189.527 214.787 180.241C214.381 180.149 212.582 180.012 212.268 179.817C209.314 180.953 209.873 177.454 209.437 175.836C208.258 172.41 205.781 169.039 204.705 165.59C201.876 164.577 207.557 164.147 208.382 164.127C204.951 160.961 203.373 156.61 200.929 152.918C197.34 146.643 194.124 140.228 191.254 133.712C190.626 137.794 190.514 141.922 190.896 146.026C192.077 163.61 200.049 180.517 199.969 198.182ZM1.82068 166.948C3.59677 167.195 6.55617 167.429 8.32927 167.55C6.0023 166.4 -0.874542 164.211 3.45905 162.243C4.79581 161.839 6.2291 162.415 7.57707 162.594C13.1726 163.357 20.0824 163.317 25.743 162.932C23.6795 161.529 20.9626 159.508 18.9484 158.055C17.8781 157.284 16.8408 156.991 18.0443 155.839C20.1669 154.202 23.9616 155.407 26.4151 156.127C33.1834 159.269 40.8259 162.676 48.0898 165.094C48.1661 164.25 48.1189 163.16 49.1002 162.594C51.9788 161.47 54.0976 161.799 57.1603 161.499C60.7305 161.056 63.9032 160.552 67.4382 159.769C69.7509 158.308 71.161 153.999 74.8584 154.481C71.5832 147.653 76.5746 140.53 78.4495 133.992C80.7892 127.301 82.019 120.352 82.0519 113.395C82.0751 102.257 89.8613 93.7101 101.113 87.9946C105.548 85.513 108.526 79.4764 114.018 78.2676C114.716 76.0475 114.758 75.0722 115.372 72.8347C115.679 72.1925 115.908 68.7052 116.682 68.8238C117.536 65.37 121.888 63.9842 125.653 63.2611C130.548 62.4207 137.38 61.402 141.781 63.7742C143.056 64.6532 143.616 66.1248 143.709 67.4392C144.199 69.1897 145.216 71.0029 146.402 72.5217C148.425 71.9552 147.279 70.8998 149.281 70.6538C167.555 68.4101 187.838 79.5174 199.694 90.3532C221.185 108.639 238.353 133.602 235.543 159.662C236.299 159.57 239.649 159.135 239.601 160.012C239.436 163.826 238.59 167.007 238.356 170.818C238.588 175.866 232.258 176.475 227.685 177.719C227.967 192.367 221.545 207.017 211.493 219.058C209.051 221.427 205.386 229.648 200.929 226.373C200.404 225.864 204.477 222.337 205.202 221.467C207.677 218.885 214.232 206.104 209.599 203.551C208.569 206.31 198.596 219.577 196.819 212.047C194.458 213.183 190.556 213.957 187.733 213.84C182.427 216.221 177.264 218.794 172.168 221.467C169.795 225.329 166.313 229.039 163.396 232.747C183.582 271.382 203.286 334.971 229.263 371.361C231.528 373.737 219.068 377.776 216.867 378.648C221.076 384.311 221.603 390.872 224.805 396.97C225.414 396.888 226.03 396.995 226.58 397.24C230.53 399.456 232.02 407.39 232.245 411.302C232.063 413.047 232.844 415.687 231.14 416.972C231.378 417.186 231.556 417.446 231.682 417.712C232.881 418.486 232.734 420.195 232.093 421.255C229.837 425.134 213.352 424.774 208.002 425.604C189.052 426.934 173.147 427.143 154.2 425.689C151.874 425.286 153.632 422.279 154.781 421.464C154.251 421.196 153.912 420.708 154.144 420.081C158.451 409.874 174.019 410.564 183.44 405.114C180.962 403.926 182.561 404.305 184.118 404.767C185.769 403.907 187.376 402.939 188.864 401.87C187.721 401.285 188.285 400.898 189.522 401.388C191.471 400.093 192.989 398.091 195.472 397.463C197.904 396.97 197.904 396.108 197.904 395.565C196.456 390.743 194.875 385.798 194.063 380.907C193.196 381.967 185.717 373.479 184.118 371.361C177.9 363.201 177.917 355.162 173.566 346.289C164.631 326.966 146.329 286.468 135.168 267.988C109.053 303.249 121.773 350.938 105.662 388.539C104.947 389.668 103.6 393.904 101.736 392.683C101.01 392.823 100.24 392.899 99.5501 392.979C99.7492 397.09 100.121 401.19 100.945 405.256C101.713 405.425 102.365 405.759 102.703 406.343C103.996 405.556 106.472 417.163 106.684 418.345C106.687 419.87 108.273 423.266 106.824 424.172C108.913 424.88 109.254 427.497 107.785 428.842C103.425 433.697 82.1724 432.363 74.3315 433.177C64.4167 432.973 22.9385 436.049 20.0584 428.256C19.4858 426.477 20.4678 424.23 22.464 423.546C21.6646 422 23.5777 420.509 24.7483 419.424C31.6491 413.477 42.26 412.54 51.4481 409.951C51.1053 409.661 63.4414 404.423 66.1157 403.128C65.939 401.37 70.3497 403.133 70.3617 403.128C72.4648 400.049 73.9543 395.257 75.3644 391.935C72.762 391.267 66.4921 390.673 65.3305 388.539C61.5957 387.501 65.3418 383.013 66.1157 380.907C88.0081 335.521 67.2384 278.272 99.5501 235.434C93.6268 232.624 86.8323 226.473 92.6823 221.312C93.8536 220.072 96.7172 216.21 96.6701 216.885C97.7583 213.207 100.188 206.873 100.945 203.155C103.724 189.504 101.903 176.719 99.5501 162.932C96.2831 173.306 85.024 181.949 73.5703 186.689C69.1005 188.217 63.1982 191.372 58.2905 190.377C53.8611 189.291 45.8174 181.756 44.8691 178.138C31.9574 179.41 18.551 178.389 6.2119 175.026C4.62741 174.53 2.75325 174.572 3.24274 172.709C3.73149 171.128 7.21483 171.531 8.71251 171.825C6.42296 170.773 0.480179 170.498 0.525833 167.75C0.602921 167.176 1.11337 166.849 1.82068 166.948Z" fill="white"/>
<path fill-rule="evenodd" clip-rule="evenodd" d="M143.664 65.1025C143.468 65.1684 143.334 65.4156 143.255 65.7877C143.036 65.8442 142.849 65.9778 142.792 66.1797C142.627 66.7723 142.82 67.3903 142.97 67.9811L142.987 68.0494C143.128 68.6209 143.301 69.1899 143.512 69.7471L143.543 69.8881C144.057 72.192 145.048 74.3823 146.211 74.0102L145.943 74.4159C141.376 81.2824 128.334 99.7196 118.152 97.0914C112.222 95.1216 112.306 88.7197 112.74 84.2646C117.143 86.5021 117.967 69.3719 117.064 67.4785C116.345 67.0406 115.998 70.9814 115.731 71.5249C115.148 73.686 114.433 75.8197 113.76 77.9634C112.341 78.1964 110.999 78.6653 109.811 79.3375C109.755 79.3642 109.696 79.389 109.641 79.417C108.928 79.776 108.372 80.2344 107.877 80.7419C107.317 81.2606 106.838 81.8296 106.385 82.4135C105.391 83.3496 104.443 84.3205 103.464 85.2672C102.999 85.7163 102.523 86.1512 102.037 86.576L101.662 86.8369C101.599 86.8804 101.536 86.9233 101.473 86.9661C90.2228 92.7866 82.4344 101.495 82.4126 112.838C82.3797 119.925 81.15 127.002 78.8103 133.818C76.9354 140.477 70.8781 147.284 74.1526 154.238C70.4552 153.747 70.1117 157.687 67.7997 159.175L67.073 159.338C63.8246 160.062 60.8458 160.666 57.5226 161.087C54.4592 161.391 50.9182 161.057 48.0403 162.202C47.0591 162.779 47.4101 163.82 47.3338 164.679C40.07 162.216 33.5457 158.815 26.7773 155.614L26.5513 155.547C24.0455 154.811 19.5771 153.703 17.5189 155.321C16.3146 156.495 17.5301 157.543 18.6004 158.329C20.6145 159.808 22.7506 161.165 24.8141 162.595C19.2538 162.979 13.677 162.672 8.17809 161.925L7.87871 161.883C6.53148 161.702 4.94249 161.267 3.60649 161.679C-0.727097 163.683 4.28685 166.023 6.61382 167.193C4.8407 167.071 3.07135 166.888 1.29526 166.636C0.588715 166.536 0.0782471 166.87 0.000411987 167.453C-0.0444946 170.253 4.40585 170.404 6.69464 171.475L6.51128 171.439C5.01511 171.152 2.86328 170.9 2.39474 172.445C1.9045 174.342 4.99115 175.109 6.57489 175.614C18.914 179.04 32.3197 180.08 45.2314 178.785C46.1789 182.47 54.2234 190.144 58.652 191.25C63.5597 192.264 69.462 189.051 73.9319 187.495C85.3848 182.667 95.9972 174.703 99.2635 164.136C102.009 180.52 100.899 197.037 96.7778 213.157C96.111 214.414 95.4074 215.651 94.6155 216.857C94.376 216.889 94.1732 217.021 94.1268 217.289C94.1021 217.436 94.0669 217.579 94.0265 217.72C93.2376 218.83 92.3739 219.896 91.5716 221C91.4054 221.228 91.2415 221.465 91.0918 221.708C85.7508 226.928 92.2609 233.656 98.0839 236.469C65.7729 280.104 86.6414 335.091 64.7505 381.321L64.7018 381.453C63.871 383.651 61.3398 388.177 65.0005 389.213C66.1621 391.388 72.0173 391.645 74.6197 392.326C73.2096 395.709 71.6423 399.056 69.5391 402.192L69.501 402.207C68.6634 401.696 66.8679 401.169 66.1254 401.725C65.945 401.744 65.7646 401.786 65.5895 401.858C64.4406 402.332 63.5163 403.236 62.4175 403.806C61.8233 404.113 61.2058 404.393 60.5696 404.637C59.9775 404.865 59.3481 405.014 58.8653 405.39C58.7127 405.508 58.6737 405.658 58.7112 405.796C58.3302 405.96 57.9492 406.125 57.569 406.29L57.3624 406.183C54.0049 404.45 51.3051 403.511 56.1896 406.841C54.4389 407.512 52.6441 408.098 50.8381 408.648C49.4662 408.1 48.0014 407.702 46.4918 407.647C46.2201 407.925 48.2956 409 48.6376 409.296C39.4503 411.933 29.3453 413.998 22.4445 420.056L22.3682 420.128C21.1931 421.225 19.3788 422.714 20.1602 424.254C18.164 424.951 17.1828 427.239 17.7554 429.051C20.6347 436.989 64.7782 433.856 74.693 434.064C82.5332 433.234 103.785 434.594 108.145 429.648C109.613 428.277 109.273 425.613 107.184 424.891C108.633 423.968 107.047 420.509 107.044 418.956L107.01 418.777C106.788 417.617 105.826 413.077 104.828 409.906C104.807 409.656 104.767 409.4 104.719 409.142L104.688 408.978C104.489 407.967 104.184 406.939 103.396 406.126C102.83 405.542 102.046 405.182 101.195 405.051C100.967 403.844 100.78 402.633 100.619 401.42C100.506 399.995 100.463 398.567 100.482 397.138C100.492 396.416 100.516 395.695 100.558 394.975C100.589 394.444 100.552 393.815 100.715 393.272C100.823 393.364 100.977 393.413 101.15 393.364C101.516 393.26 101.854 393.068 102.191 392.911C102.203 392.905 102.214 392.898 102.224 392.891C104.022 393.859 105.323 389.719 106.023 388.595C122.132 350.297 109.413 306.22 135.527 270.304C139.132 276.717 142.23 282.599 145.7 289.057C156.537 309.223 169.916 344.744 178.888 366.096C181.329 370.461 184.198 374.68 187.609 378.578C188.699 379.602 189.431 381.11 191.009 381.661L191.147 381.678C191.569 382.33 192.153 382.88 193.023 382.861C193.236 382.857 193.454 382.837 193.673 382.805C194.444 387.249 195.413 391.72 196.702 396.092L196.528 396.032C195.685 395.743 194.798 395.497 193.932 395.561C191.832 396.002 192.61 397.524 194.27 398.026C192.203 398.558 190.805 400.059 189.27 401.308C187.973 400.729 186.52 400.429 184.967 400.555C184.729 400.574 184.548 400.661 184.421 400.779C184.332 400.779 184.246 400.784 184.164 400.795L184.333 400.879C184.057 401.264 184.253 401.849 184.967 401.853C185.526 401.855 186.065 401.897 186.586 401.977C186.948 402.152 187.307 402.33 187.663 402.514C186.465 403.391 185.19 404.199 183.877 404.939C183.184 404.645 182.45 404.399 181.688 404.201C180.703 403.946 180.273 405.244 181.263 405.479C181.472 405.529 181.68 405.584 181.887 405.644L182.09 405.745C182.137 405.769 182.186 405.793 182.238 405.818C172.818 411.371 156.895 410.667 152.587 421.064C152.445 421.456 152.518 421.795 152.719 422.061C151.784 422.771 151.354 424.047 151.564 425.026L151.546 425.108C151.386 425.9 151.617 426.596 152.643 426.777C159.494 427.305 166.328 427.641 173.208 427.745L173.764 427.749C183.622 427.804 231.57 427.507 233.733 422.26C234.31 421.289 234.488 419.781 233.644 418.915C233.546 418.449 233.353 418.024 233.01 417.692C234.399 416.53 233.716 413.598 233.886 412.122C233.581 407.194 232.375 401.91 228.741 397.877C228.681 397.813 228.61 397.774 228.535 397.755C227.901 397.227 227.067 396.892 226.114 396.847C226.084 396.786 226.054 396.725 226.025 396.663C225.284 395.215 224.579 393.739 223.88 392.257C223.361 390.572 222.82 388.892 222.277 387.221C221.735 385.552 221.205 383.88 220.686 382.206C220.273 380.871 219.918 379.367 219.203 378.091C219.222 378.037 219.241 377.983 219.262 377.928L220.006 377.678C224.879 376.036 232.6 373.267 230.904 371.438C212.827 340.302 195.132 295.975 178.543 263.695C178.283 263.063 178.009 262.433 177.708 261.81C176.975 260.292 176.234 258.777 175.481 257.266L175.028 256.36L167.801 241.945C167.044 240.436 166.192 238.936 165.595 237.377C165.021 235.875 164.866 234.381 165.958 233.014C166.934 231.792 168.31 230.779 169.411 229.631C170.244 228.763 171.056 227.834 171.783 226.86C172.443 226.138 172.996 225.311 173.488 224.645C174.278 223.579 175.282 222.397 175.854 221.164C176.593 220.778 177.333 220.394 178.076 220.014C179.36 219.418 180.622 218.793 181.851 218.118C183.403 217.353 184.965 216.601 186.54 215.866C187.108 215.633 187.677 215.4 188.246 215.167C189.952 215.29 194.664 213.547 196.269 212.368C196.453 212.338 196.635 212.303 196.817 212.265C196.889 213.019 197.186 213.7 197.878 214.206C202.477 216.098 208.34 207.529 209.956 204.67C213.167 207.27 205.505 220.132 203.03 222.761L202.898 222.924C202.236 223.746 201.542 224.67 200.603 225.277L200.509 225.337C199.865 225.732 199.746 226.348 200.271 226.867C204.728 230.202 209.407 222.877 211.849 220.465C221.9 208.201 228.323 193.278 228.041 178.358C232.614 177.09 238.944 176.47 238.711 171.328C238.945 167.447 239.792 163.607 239.957 159.722C240.004 158.829 236.654 159.272 235.898 159.366C237.012 150.441 235.329 141.379 232.328 132.801C224.45 110.852 192.006 71.2913 160.073 69.8632C160.101 69.8198 160.088 69.762 160.016 69.7465C158.571 69.4353 156.974 69.4849 155.488 69.5241C153.942 69.5645 152.37 69.5738 150.833 69.7185C149.24 69.8682 147.552 70.354 146.481 71.3143L146.11 70.7596C145.68 70.1123 145.265 69.4582 144.952 68.7439C144.793 68.383 144.669 68.0084 144.555 67.6301C144.427 67.0909 144.395 66.5294 144.087 66.0393C144.079 66.0268 144.069 66.0163 144.06 66.0039C143.949 65.6951 143.822 65.3933 143.664 65.1025ZM104.472 424.873C104.929 425.257 105.72 425.424 106.42 425.241C108.749 430.724 96.1147 430.38 92.0603 430.689C87.7365 431.071 8.97519 434.466 22.2948 426.426C37.9219 431.362 90.1884 431.907 104.472 424.873ZM66.1149 403.128C67.1665 404.027 68.7518 404.427 69.8797 405.284C73.0681 407.52 75.6331 410.664 80.0393 411.257C85.8286 412.152 91.0469 409.784 96.2255 407.909C96.8699 407.883 97.5428 407.658 98.2037 407.49C98.2269 407.53 98.2501 407.57 98.277 407.607C98.3092 407.596 98.3436 407.587 98.3818 407.582C98.4394 407.574 98.4941 407.569 98.5502 407.562C98.6834 407.474 98.8234 407.4 98.9686 407.338C99.0562 407.326 99.143 407.318 99.2298 407.313C100.297 407.259 101.456 407.465 102.141 408.198C102.199 408.261 102.252 408.327 102.304 408.394C102.635 409.368 102.678 410.547 102.518 411.372C102.465 411.642 102.601 411.906 102.831 412.059C103.035 416.139 103.59 420.236 103.977 424.262C102.04 424.839 100.03 425.278 98.0181 425.555C84.1386 426.97 70.1102 427.627 56.123 427.271C47.7971 427.022 39.4825 426.405 31.2426 425.38C28.5789 425.172 25.853 424.319 23.1907 424.664C23.0777 424.486 22.9003 424.334 22.6548 424.231C29.4778 416.488 41.1396 414.394 51.3066 410.999C52.9854 411.889 54.0198 413.742 55.8902 414.294C56.6162 414.384 57.6259 414.029 57.5189 413.266C57.2172 411.703 55.1807 410.99 53.8087 410.083C55.2802 409.513 56.7247 408.894 58.1326 408.205C59.5165 409.239 61.1541 410.025 62.4497 411.127C61.7132 412.618 64.7827 412.488 64.8171 410.903C64.6045 409.148 61.2514 408.406 59.753 407.383C62.0927 406.203 64.1824 404.714 66.1149 403.128ZM230.954 418.459C231.035 418.593 231.168 418.714 231.365 418.808C231.707 418.972 231.543 419.837 231.526 420.128L231.525 420.15C231.506 420.673 231.466 421.195 231.412 421.717C230.836 422.147 230.099 422.474 229.281 422.671C204.363 425.966 178.967 426.234 153.808 425.037C153.924 424.483 154.413 424.027 154.846 423.565C170.75 424.685 187.038 423.513 202.969 422.421C212.283 421.407 222.042 420.987 230.954 418.459ZM194.676 398.181C198.783 399.353 202.604 400.979 206.244 402.926C207.597 403.655 208.888 404.491 210.443 404.909C215.827 406.252 223.899 399.801 224.028 399.729C225.898 398.686 227.881 399.659 228.898 401.105C228.992 401.238 230.552 408.633 230.504 412.256C230.784 413.487 230.038 415.5 230.435 416.843C230.123 417.155 229.677 417.301 229.378 417.627C229.269 417.745 229.3 417.878 229.394 417.979C214.854 418.97 200.399 420.852 185.791 421.249C175.793 421.687 165.775 421.587 155.776 421.486C158.051 415.95 165.8 414.489 171.719 412.666C176.192 411.335 180.309 409.351 183.932 406.801C185.503 407.715 186.742 408.996 187.855 410.283C188.361 410.806 189.399 411.201 189.941 410.476C190.499 409.724 189.41 408.773 188.065 407.941C187.358 407.073 186.467 406.334 185.44 405.724C186.575 404.886 187.668 404.012 188.692 403.083C190.816 404.276 192.376 405.991 193.903 407.656C194.637 408.319 196.01 407.441 195.408 406.693C194.926 406.178 194.382 405.702 193.801 405.257C192.924 403.886 191.662 402.62 190.131 401.744L190.247 401.621C191.527 400.26 192.632 398.629 194.676 398.181ZM230.859 417.59C230.894 417.626 230.931 417.661 230.971 417.695C230.936 417.754 230.909 417.816 230.889 417.88L230.516 417.904C230.645 417.816 230.759 417.707 230.859 417.59ZM75.9849 392.55C83.6027 393.741 91.472 394.2 99.1602 393.216C98.2703 397.33 97.7127 401.471 98.0046 405.65C86.5082 408.4 81.7316 412.987 72.167 403.822C72.6288 403.238 72.8952 402.522 73.2058 401.832C74.5276 398.836 75.6204 395.736 75.9849 392.55ZM215.899 379.052C216.007 379.252 216.203 379.416 216.485 379.488C216.586 379.857 216.69 380.224 216.801 380.592C216.988 382.488 217.851 384.368 218.744 386.117C218.805 386.237 218.866 386.358 218.926 386.479C219.515 387.934 220.133 389.386 220.742 390.839C221.203 392.349 221.61 393.871 222.035 395.389C222.117 396.417 222.293 397.438 222.564 398.447C222.577 398.494 222.594 398.537 222.612 398.578C222.187 398.736 221.776 398.918 221.388 399.102C209.725 406.364 211.739 401.508 200.541 397.443C200.605 397.053 200.369 396.7 200.176 396.296L200.152 396.243C200.14 396.217 200.128 396.192 200.117 396.166C200.135 396.012 200.124 395.846 200.075 395.671C198.941 391.826 197.361 388.049 195.883 384.287C195.647 383.72 195.373 383.167 195.093 382.615C202.193 382.539 209.217 380.972 215.899 379.052ZM171.865 223.271C107.443 289.838 121.556 297.688 107.685 374.431C106.338 380.405 103.599 386.075 101.787 391.935L101.537 391.915C101.29 391.895 101.055 391.883 100.879 391.929L100.872 391.932L100.158 391.924C91.823 391.829 83.4523 391.468 75.312 389.894C72.4327 389.474 69.6275 388.375 66.7466 388.146C66.7347 387.836 66.5573 387.546 66.3163 387.379C88.5358 343.828 73.0547 294.079 92.332 249.788C94.1612 245.356 96.34 241.022 98.5936 236.728C123.371 249.003 151.061 235.102 171.865 223.271ZM218.971 380.92C219.108 381.423 219.258 381.918 219.394 382.397L219.595 383.111C219.309 382.389 219.084 381.657 218.971 380.92ZM163.219 235.06C163.177 236.16 163.497 237.27 163.931 238.305C165.323 241.622 167.104 244.853 168.699 248.105C169.782 250.312 170.854 252.523 171.939 254.73C187.998 290.282 207.711 337.935 227.16 371.625C219.832 375.14 211.797 377.627 203.485 378.974C201.555 379.509 196.035 379.532 194.081 380.38L193.637 380.019C193.56 378.502 191.485 377.421 190.654 376.09C186.904 371.713 183.915 366.926 181.203 362.062L180.76 360.994C173.552 343.599 164.144 319.653 154.233 299.41L153.926 298.785C149.818 290.436 147.119 282.74 142.161 276.424C141.891 276.085 141.617 275.744 141.343 275.404C141.14 275.066 140.936 274.729 140.727 274.393C139.838 272.957 138.88 271.552 137.975 270.124C137.59 269.514 137.207 268.827 137.005 268.123C144.88 256.661 154.263 245.947 163.219 235.06ZM151.426 70.8012C153.897 71.2994 156.429 71.5025 158.915 71.9156C176.044 73.6083 189.178 83.6739 200.49 93.6674C221.92 112.318 234.388 135.265 233.468 161.201C225.815 162.357 218.241 164.048 210.444 164.417C211.577 162.995 209.679 161.216 209.026 159.854C197.748 141.8 189.041 121.87 181.969 102.862L182.161 103.691C184.382 113.231 186.968 122.73 190.916 131.894C189.772 130.962 170.988 118.583 172.456 122.677C178.195 126.394 184.677 129.339 190.691 132.749C183.541 152.54 193.877 172.592 195.841 192.39C196.335 196.792 196.292 201.225 196.955 205.611C197.207 206.106 196.942 207.115 197.313 207.587C197.038 208.751 196.46 209.812 195.266 210.72C194.764 211.102 194.215 211.434 193.639 211.729C192.199 211.909 190.753 212.369 189.58 212.794C186.972 213.741 184.676 215.136 182.343 216.47L182.281 216.505C178.521 218.106 174.765 219.924 170.995 221.82L170.827 221.894C169.425 222.504 167.991 223.053 166.769 223.899C166.713 223.938 166.677 223.982 166.652 224.028L164.362 225.199C146.021 234.579 127.109 243.853 105.604 237.159C99.5629 235.143 90.7789 231.057 91.9076 224.74C92.1299 224.134 92.4682 223.564 92.8507 223.011C92.957 222.892 93.0662 222.775 93.1763 222.659C94.0093 221.787 94.9419 220.987 95.6656 220.044C95.9598 219.66 96.224 219.266 96.4545 218.859C96.6177 218.818 96.7629 218.723 96.8542 218.558C97.8893 216.687 98.9035 214.814 99.8473 212.91C111.295 179.843 97.3998 144.316 93.4689 110.964C93.1965 109.055 92.7953 107.125 92.7968 105.201C92.7968 105.111 92.6389 105.114 92.6299 105.201C91.2437 113.714 92.2953 122.306 93.6134 130.779C95.3011 141.38 97.5188 151.937 99.0419 162.557C94.992 173.261 83.6499 180.997 71.7396 185.635C69.7135 186.433 67.6418 187.144 65.5289 187.77L65.3874 187.81C63.0665 188.483 60.4461 189.524 58.2067 188.16C53.909 185.743 50.8748 182.056 48.0898 178.505C49.2169 178.404 50.3449 178.316 51.4743 178.251C54.2458 180.879 57.6431 183.109 61.2275 184.932C62.6885 185.625 64.3478 185.332 65.0229 183.974C65.6606 182.693 64.88 181.196 64.3149 179.961L64.2333 179.781C61.3727 173.389 56.4052 167.531 49.6982 163.529C54.7585 162.69 60.0142 162.716 64.868 161.059C64.6038 161.29 64.9503 161.547 65.1187 161.743C65.0588 162.122 65.3912 162.399 65.7998 162.5C69.7599 166.788 72.762 171.865 73.3885 177.303C73.2216 179.155 75.2222 181.294 77.148 179.349C78.6546 173.936 72.7291 165.476 67.5183 162.136C72.7433 159.164 71.2202 154.876 74.5007 154.857C75.3487 156.205 76.4549 157.495 77.8485 158.497C78.4787 158.921 79.2444 159.241 79.9203 159.618C80.6321 160.014 81.3723 159.143 80.8087 158.664L80.6605 158.516C78.5207 156.396 75.9804 154.311 75.538 151.443C74.8996 147.91 76.8157 144.331 78.2849 141.104C81.1006 134.917 82.9688 128.48 83.8781 121.912C84.9095 116.026 83.6558 109.921 86.0876 104.226C86.5711 102.64 87.2657 101.195 88.1182 99.855C88.1384 99.8407 88.1586 99.8264 88.1765 99.809C89.1885 98.8393 89.9968 97.761 90.9399 96.7454C91.9256 95.6831 92.9951 94.6725 94.1275 93.7159C96.0204 92.1176 98.1109 90.7839 100.289 89.4999C100.329 89.4881 100.37 89.4726 100.411 89.4521C100.82 89.2527 101.211 89.0098 101.59 88.7433L101.626 88.7222C102.893 87.993 104.186 87.2009 105.175 86.2108C106.145 85.238 106.836 84.1044 107.628 83.0328C108.711 81.9383 109.744 80.7655 111.05 79.853C111.789 79.5039 112.558 79.1741 113.218 78.7374C113.326 78.6995 113.436 78.6641 113.547 78.6306C113.266 79.5803 112.841 80.4537 112.457 81.4178C111.903 81.224 111.143 81.4389 111.049 82.147L111.015 82.4117C110.458 86.7494 110.176 91.9983 113.255 95.754C120.035 103.898 130.161 96.9448 135.283 91.2181C139.879 86.6506 143.743 81.57 146.597 76.1098L146.644 76.0378C147.175 75.2023 148.327 72.6542 148.652 71.4299C149.475 71.0714 150.476 70.8975 151.426 70.8012ZM173.131 222.597C173.152 222.619 173.175 222.637 173.201 222.653C172.24 223.785 171.324 224.955 170.379 226.091C171.153 225.042 171.881 223.986 172.526 222.918C172.727 222.81 172.93 222.704 173.131 222.597ZM226.946 178.64C223.272 195.168 218.02 212.558 203.387 224.916C207.941 219.601 211.482 213.398 212.513 206.9C212.556 205.155 211.789 203.313 209.46 203.055C209.062 203.011 208.76 203.306 208.618 203.568L208.605 203.594C207.688 205.406 206.497 207.129 205.086 208.708L204.948 208.858C203.883 209.999 199.364 214.647 198.734 212.426C199.195 201.192 213.21 196.56 215.505 181.088C219.432 180.744 223.158 179.508 226.946 178.64ZM196.818 211.425C196.803 211.601 196.796 211.776 196.799 211.948C196.591 211.876 196.377 211.819 196.158 211.775C196.38 211.661 196.6 211.544 196.818 211.425ZM197.027 210.214C196.95 210.537 196.885 210.863 196.845 211.185C196.445 211.291 196.049 211.406 195.656 211.526C195.894 211.348 196.121 211.16 196.334 210.96C196.582 210.727 196.814 210.477 197.027 210.214ZM191.611 133.533C194.481 140.169 197.697 146.704 201.286 153.096C203.697 156.836 205.305 161.194 208.64 164.441C208.673 164.467 208.705 164.49 208.739 164.513L208.683 164.515C207.69 164.551 202.289 164.992 205.061 166.004C206.138 169.516 207.548 172.95 208.727 176.439L208.753 176.541C209.184 178.229 209.73 181.629 212.625 180.494C212.939 180.693 213.316 180.833 213.721 180.927C212.42 190.386 205.198 196.544 199.489 204.267C200.765 200.191 200.392 195.934 199.948 191.773L199.837 190.749C197.479 171.668 188.822 152.904 191.611 133.533ZM167.635 194.186C172.289 189.382 195.174 141.812 179.001 170.631C173.253 180.664 168.522 191.405 159.038 199.534C158.382 200.118 159.246 201.144 160.098 200.672C163.16 198.98 165.637 196.733 167.635 194.186ZM184.2 136.691C184.218 136.614 184.099 136.572 184.047 136.637C177.829 146.807 173.389 157.734 166.363 167.596C162.121 173.702 157.033 179.394 151.204 184.526C150.767 184.912 151.425 185.444 151.9 185.102C168.536 172.389 176.624 153.908 184.2 136.691ZM61.5845 178.556L61.595 178.558L61.7477 178.886C61.8 178.996 61.8524 179.108 61.9056 179.22C61.8801 179.211 61.8547 179.202 61.8292 179.194C61.7746 179.148 61.72 179.102 61.6653 179.053C61.6781 178.886 61.6526 178.719 61.5845 178.556ZM235.832 159.765C236.677 160.04 237.715 160.092 238.648 160.159C237.603 164.238 236.7 168.349 235.754 172.439C235.317 173.694 234.288 174.135 232.865 174.534L231.721 174.837C226.38 176.254 221.009 177.71 215.502 178.579C215.115 178.371 214.565 178.381 214.308 178.715C214.04 178.736 213.765 178.748 213.493 178.769C212.022 174.269 209.504 169.908 206.135 166.174C215.552 166.425 225.038 164.368 233.997 162.068C234.359 162.214 234.837 162.123 234.99 161.778L235.128 161.745C236.632 161.375 238.627 160.467 235.466 160.929C235.657 160.56 235.763 160.163 235.832 159.765ZM19.2867 156.435C25.5289 155.58 30.2996 159.769 35.6271 161.693C38.8171 162.826 47.3173 166.341 50.4077 165.172C54.644 168.55 58.2209 172.496 60.7223 176.925C60.0404 176.891 59.3586 176.866 58.6767 176.848C57.4418 176.52 56.123 176.503 54.8401 176.819C41.9943 176.936 29.1395 179.004 16.3445 176.383L16.0504 176.338C13.4218 175.924 4.4485 174.354 3.93805 172.814C4.07202 172.144 6.48506 172.852 6.94836 172.928C10.636 173.529 14.3828 173.816 18.1199 174.117C19.1587 174.201 19.146 172.862 18.1199 172.777C13.6216 172.406 9.35991 171.007 5.23289 169.552C4.7943 169.392 3.63193 169.057 2.82808 168.624C6.64149 169.162 10.5702 169.255 14.4292 169.141C15.757 168.998 15.8513 167.327 14.4292 167.36C11.8238 167.599 9.33595 166.533 7.20958 165.409L6.74629 165.161C3.20233 163.247 3.44931 163.164 7.92885 163.875C14.5116 164.868 21.1729 164.831 27.8199 164.453C28.769 164.439 29.4239 163.382 28.6387 162.815C25.5783 160.626 22.2971 158.674 19.2867 156.435ZM49.4602 164.408L49.5328 164.464C49.6855 164.586 49.8105 164.694 49.8808 164.751L49.9093 164.773C50.0028 164.846 50.0941 164.922 50.187 164.996C49.779 165.11 49.3292 165.116 48.8644 165.056C49.1451 164.911 49.3531 164.674 49.4602 164.408ZM166.737 146.901L166.752 146.885L166.717 146.916C162.701 150.515 158.631 156.352 155.305 160.955C154.867 164.727 164.702 149.075 166.737 146.901ZM65.6913 160.809C65.6524 160.85 65.615 160.891 65.5783 160.933L65.5251 160.996L65.4383 160.952C65.4069 160.937 65.3732 160.927 65.3388 160.919C65.457 160.884 65.5738 160.846 65.6913 160.809ZM84.0638 148.523C80.4509 148.993 87.839 152.711 88.8142 153.244C89.4384 153.44 95.376 157.5 95.0152 156.182C92.2362 153.227 88.4011 149.782 84.0638 148.523ZM225.399 140.732C224.062 138.949 216.79 141.296 214.491 141.577C213.199 141.859 211.92 142.194 210.614 142.431C209.594 142.737 204.834 142.44 206.581 144.111C208.404 144.923 210.783 144.296 212.649 143.865C216.363 143.025 220.089 142.045 223.892 141.578C224.006 141.531 224.013 141.563 223.913 141.675C223.095 143.18 221.374 144.592 219.437 145.077C219.303 145.11 219.359 145.279 219.495 145.251L219.625 145.228C221.804 144.825 226.512 142.914 225.399 140.732Z" fill="#121957"/>
<path fill-rule="evenodd" clip-rule="evenodd" d="M95.3415 39.9557C95.4119 36.6573 95.4905 33.2933 96.0825 30.0272C96.6611 26.8342 98.253 23.948 100.989 21.6293C106.8 16.7042 115.224 15.5012 123.065 14.3988L136.471 12.5139C140.561 11.939 144.924 11.02 149.056 11.8353C151.092 12.2371 152.822 13.1705 154.402 14.2748C155.925 15.3393 157.563 16.4824 158.595 17.9144C159.629 19.3486 159.985 21.025 160.321 22.647C160.7 24.4756 160.995 26.3186 161.204 28.166C161.623 31.8673 161.681 35.5963 161.376 39.3053C161.229 41.1043 160.994 42.8982 160.695 44.6841C160.547 45.5693 160.379 46.4526 160.19 47.3328C160.133 47.5925 160.091 47.8801 160.034 48.1702C160.457 49.1665 160.697 50.1983 160.678 51.2251C160.621 54.2509 157.537 56.156 154.429 57.1785C152.626 57.7717 150.742 58.1749 148.971 58.837C147.108 59.534 145.84 60.6639 144.566 61.9523C142.137 64.4103 139.395 66.6192 136.265 68.4622C129.628 72.3694 121.222 74.2174 113.169 72.8148C111.237 72.4781 109.288 71.9557 107.551 71.168C105.717 70.3369 104.338 69.1318 103.18 67.7075C101.031 65.0631 99.4887 62.0858 98.3226 59.0557C97.1326 55.9647 96.2883 52.8681 95.8273 49.6455C95.3685 46.4327 95.2719 43.1877 95.3415 39.9557Z" fill="white"/>
<path fill-rule="evenodd" clip-rule="evenodd" d="M138.121 1.02513C132.574 0.393078 124.917 2.44731 122.154 6.58933C108.964 4.0138 92.3276 3.92944 81.4563 12.5034C70.1118 22.6741 84.3603 36.0839 93.8089 39.1078C93.121 41.8764 94.1936 59.6147 101.782 67.5273C107.805 74.231 121.831 77.3251 128.321 69.3175L128.372 69.2517C129.067 68.3267 128.469 68.3566 127.755 69.0442C121.399 73.6732 112.758 73.7527 106.099 68.8672C93.6202 59.9384 94.9068 38.0443 100.845 25.3783C117.754 23.8401 135.86 28.085 147.539 38.6276L146.749 42.5659C146.614 43.2367 146.462 43.907 146.345 44.5803C146.27 45.0114 146.262 45.4407 146.622 45.7898C147.814 46.9427 149.822 45.2102 151.474 44.5213C151.962 44.4642 152.451 44.4424 152.93 44.4704C160.868 45.3171 159.304 58.0717 150.58 55.8361C149.846 55.4578 149.217 55.5733 148.932 56.1218C146.853 57.6996 145.482 60.5136 142.027 63.2238C140.808 64.24 139.698 65.0904 138.327 65.906C137.522 66.5806 135.092 67.2682 135.862 68.423C137.318 71.0494 145.91 62.7983 147.429 60.5167C152.187 62.0733 157.461 61.5441 162.393 61.1639C188.411 60.0433 184.937 37.3281 163.611 22.9868C159.597 20.5389 155.168 18.5422 150.564 17.0056C149.935 16.7958 150.21 15.941 150.848 16.1537C153.894 17.1706 156.864 18.3809 159.694 19.7818L159.699 18.9443C159.703 17.5337 159.676 16.0651 159.38 14.7763C159.233 13.8832 158.984 12.9293 158.601 12.2117C158.128 10.0118 150.713 2.4603 138.121 1.02513ZM153.277 47.3986C152.876 47.0825 152.126 47.4595 151.768 47.4502C150.854 47.5539 149.985 47.8738 149.307 48.2683C148.86 48.4758 148.546 48.6708 148.284 48.8503L148.277 48.8485C148.279 48.8485 148.281 48.8503 148.283 48.8509L148.259 48.8646C147.878 49.0889 146.481 50.3536 147.363 50.0132C147.429 49.9424 147.496 49.8746 147.564 49.8082C147.572 49.8169 147.581 49.8262 147.594 49.8349L147.544 49.8958C146.794 50.83 148.089 49.8454 148.288 49.5839C148.298 49.5908 148.308 49.5945 148.318 49.5995L148.06 49.861C148.023 49.8983 147.994 49.9274 147.971 49.9529L147.916 49.9964C147.049 50.7021 147.022 51.3375 148.03 50.2939C147.99 50.343 147.958 50.3952 147.953 50.4412L147.893 50.5045C147.103 51.3487 147.746 51.0487 148.139 50.6884L148.172 50.6573L148.165 50.666C147.8 51.1325 148.525 50.8052 148.653 50.5555L148.659 50.5443C148.798 50.4499 148.884 50.3436 148.913 50.3169L148.919 50.3126C149.599 49.7355 150.586 49.2473 151.422 49.0249C151.544 49.0062 151.667 48.9907 151.791 48.9795C152.294 48.887 152.803 48.823 153.318 48.7888C153.381 48.7826 153.445 48.7441 153.493 48.6944C154.27 48.6727 154.03 48.4087 153.707 48.3596L153.701 48.359L153.766 48.3546C154.265 48.3142 154.606 48.1658 154.101 48.0745L154.037 48.0639C154.045 48.054 154.052 48.044 154.058 48.0335C154.491 47.9943 154.209 47.6465 153.969 47.7303C154.07 47.457 153.609 47.5937 153.551 47.5533C153.507 47.5129 153.452 47.4769 153.421 47.475C153.282 47.3937 153.349 47.4011 153.277 47.3986ZM150.632 42.9721L150.733 43.0212C150.815 43.0609 150.899 43.087 150.984 43.1026C150.865 43.1448 150.746 43.1901 150.63 43.2386C150.631 43.1796 150.633 43.12 150.633 43.0609L150.632 42.9721Z" fill="#121957"/>
<path fill-rule="evenodd" clip-rule="evenodd" d="M111.08 61.0043C112.389 61.3187 113.795 61.3466 115.13 61.0224C116.341 60.7279 117.584 60.08 118.474 59.2234C119.266 58.4619 119.779 57.5369 119.759 56.5492C119.756 56.4368 119.708 56.3424 119.633 56.2697C119.552 56.1908 119.439 56.1368 119.319 56.1132C119.194 56.0896 119.063 56.0977 118.952 56.1399C118.851 56.1778 118.764 56.2424 118.71 56.3368C118.573 56.4859 118.437 56.6325 118.3 56.7754C117.199 57.9016 116.132 58.7432 114.477 59.0445C113.579 59.2085 112.681 59.1358 111.859 58.8861C110.977 58.6184 110.181 58.1482 109.556 57.5462C109.274 57.2742 108.941 57.1636 108.616 57.1617C108.247 57.1592 107.882 57.3015 107.607 57.5282C107.337 57.7512 107.156 58.055 107.14 58.3718C107.125 58.6501 107.235 58.9408 107.527 59.2004C108.488 60.0552 109.733 60.6813 111.08 61.0043ZM111.12 46.9011C109.778 47.5769 107.732 49.1529 109.177 50.8282C110.877 52.3054 113.323 50.6114 114.529 49.8455C115.647 49.2523 116.904 50.7785 115.867 51.4717C107.152 56.8157 103.616 47.0781 110.441 46.1066C111.193 45.9998 111.472 46.6924 111.12 46.9011ZM123.676 43.9275C124.108 43.6989 124.616 43.6207 125.178 43.8325C125.617 43.9983 126.388 44.5499 126.925 45.2755C127.292 45.7718 127.552 46.3545 127.498 46.9607C127.485 47.1017 127.548 47.2055 127.647 47.2825C127.725 47.3428 127.838 47.3875 127.972 47.4012C128.084 47.413 128.21 47.4024 128.313 47.3757C128.508 47.3254 128.612 47.2204 128.65 47.1353C129.026 46.3085 128.864 45.3867 128.443 44.5549C127.875 43.4324 126.843 42.492 126.167 42.1888C125.011 41.6695 123.646 41.6459 122.488 42.1746C121.501 42.6249 120.885 43.3511 120.271 44.0915C120.141 44.2493 120.012 44.4052 119.878 44.5586C119.61 44.8667 119.584 45.1717 119.687 45.4333C119.802 45.7227 120.096 45.9675 120.462 46.0954C120.801 46.2141 121.194 46.2309 121.542 46.1091C121.836 46.0066 122.106 45.806 122.277 45.4662C122.564 44.8947 123.043 44.2636 123.676 43.9275ZM101.766 45.2003C102.061 45.3277 102.293 45.3662 102.62 45.2848C102.802 45.2401 102.981 45.1537 103.121 45.0376C103.26 44.922 103.361 44.7792 103.4 44.6201C103.495 44.2282 103.754 43.8617 104.123 43.6225C104.439 43.4175 104.837 43.3095 105.278 43.3703C105.755 43.4362 106.209 43.6896 106.521 43.9878C106.625 44.0878 106.708 44.2015 106.79 44.3139C106.944 44.5245 107.094 44.7201 107.307 44.8748C107.387 44.9338 107.508 44.9748 107.625 44.9748C107.673 44.9748 107.722 44.968 107.768 44.9562C108.242 44.5618 108.333 44.263 108.319 43.966C108.302 43.6554 108.154 43.3405 107.915 43.0467C107.354 42.3572 106.288 41.7919 105.569 41.664C104.584 41.4888 103.606 41.6994 102.822 42.1547C102.015 42.6237 101.417 43.3511 101.231 44.1716C101.186 44.3692 101.205 44.5822 101.296 44.7674C101.385 44.9475 101.539 45.1022 101.766 45.2003ZM121.505 36.5784C122.095 37.0554 122.795 37.1293 123.503 37.1952C123.896 37.2318 124.21 37.2617 124.519 37.3194C125.368 37.4785 126.207 37.717 126.972 38.0617C127.773 38.4214 128.645 38.8556 129.272 39.4116C129.422 39.5439 129.563 39.683 129.704 39.8222C129.832 39.9489 129.956 40.0712 130.086 40.1887C130.236 40.3241 130.378 40.4657 130.519 40.6073C130.607 40.7266 130.624 40.7558 130.642 40.7869C130.668 40.8322 130.699 40.8838 130.734 40.939C130.783 41.0142 130.839 41.0968 130.898 41.172C130.997 41.3093 131.049 41.3465 131.095 41.3633C131.171 41.3913 131.242 41.4055 131.312 41.3981C131.378 41.3906 131.439 41.3645 131.5 41.3223C131.804 41.1099 131.893 40.7614 131.884 40.3918C131.87 39.8302 131.62 39.2084 131.389 38.8264C130.854 37.9387 130.111 37.0163 129.217 36.3535C128.198 35.5975 127.082 35.0248 125.8 34.6304C125.005 34.385 124.083 34.1595 123.215 34.1881C122.591 34.2086 121.994 34.3626 121.503 34.7465C121.2 34.9819 121.055 35.3174 121.055 35.6522C121.055 35.9938 121.206 36.3373 121.505 36.5784ZM100.564 40.9459C100.602 40.9968 100.654 41.0322 100.711 41.0533C100.773 41.0757 100.84 41.0819 100.905 41.0726C100.969 41.0639 101.032 41.0397 101.08 41.0024C101.127 40.967 101.162 40.9198 101.178 40.862C101.57 39.4345 102.332 38.3723 103.959 37.6872C104.759 37.3505 105.679 37.1362 106.549 36.966C106.803 36.9163 107.07 36.884 107.34 36.8517C108.183 36.7492 109.033 36.6324 109.583 36.0678C109.915 35.7274 110.054 35.2919 109.976 34.8937C109.902 34.5192 109.637 34.1756 109.156 33.9694C107.959 33.4569 106.472 33.9601 105.264 34.3881C105.174 34.4198 105.086 34.4515 105 34.4813C103.818 34.8944 102.74 35.4397 101.854 36.2199C101.151 36.8386 100.5 37.753 100.237 38.6941C100.02 39.4774 100.07 40.2762 100.564 40.9459Z" fill="#121957"/>
<path fill-rule="evenodd" clip-rule="evenodd" d="M126.956 62.04C125.517 59.2472 122.376 57.1948 118.76 56.4445C116.104 55.8953 113.317 55.9127 110.61 56.1308C109.191 56.2444 107.67 56.3376 106.334 56.7737C105.192 57.1464 104.262 57.8508 103.563 58.6776C102.73 59.6578 102.164 60.779 101.766 61.9288C101.71 62.0922 101.656 62.2568 101.607 62.4227C101.78 63.2898 102.147 64.0278 103.117 64.5732C104.064 65.1062 105.193 65.3236 106.319 65.4012C106.429 65.3571 106.536 65.3118 106.634 65.2658C108.388 64.4341 109.623 62.468 111.837 62.7339C113.813 62.9718 115.114 65.031 116.289 66.2386C120.061 66.6026 123.83 65.664 126.9 63.8775C127.055 63.2662 127.065 62.6494 126.956 62.04ZM99.0436 59.9218C99.3452 59.2199 99.7254 58.5409 100.176 57.9011C101.665 55.7848 103.951 54.0983 106.666 53.1348C113.086 50.8576 121.394 52.4627 126.579 56.1972C128.35 57.4738 130.141 59.3497 130.683 61.3679C130.845 61.394 130.998 61.4642 131.123 61.5623C134.869 59.6087 138.728 57.7291 141.746 55.0207C143.939 53.0534 145.463 50.7253 146.397 48.166C146.474 47.9554 146.884 47.9865 146.871 48.2194C146.867 48.2741 146.864 48.3281 146.86 48.3828C146.899 48.2828 147.084 48.3344 147.099 48.4313C147.601 51.5396 148.229 54.8356 147.65 57.9601C147.304 59.8243 146.282 61.189 144.915 62.6631C143.451 64.2427 141.793 65.7124 140.097 67.1213C139.021 68.0158 137.898 69.0475 136.58 69.7035C135.048 70.4651 133.31 71.0446 131.676 71.6323C130.013 72.2323 128.324 72.7864 126.604 73.2672C123.166 74.2307 119.612 74.8972 115.995 75.1891C113.1 75.4221 109.791 75.6755 107.017 74.7736C104.891 74.0822 103.174 72.8324 101.812 71.3291C100.33 69.6917 99.1581 67.8263 98.5107 65.8597C97.8371 63.8166 98.9014 60.251 99.0436 59.9218Z" fill="#121957"/>
</svg>
